<svg xmlns="http://www.w3.org/2000/svg" width="241" height="39" viewBox="0 0 241 39">
  <g id="h1_ebseLOGO" transform="translate(-67.37 7.158)">
    <g id="logo_ebse-teacher" transform="translate(67.37 -6.158)">
      <path id="패스_7" data-name="패스 7" d="M51.333,35.771l.007-4.879L37.3,30.865,37.261,52.4l14.039.028.007-4.892-8.438-.016.009-3.655,7.256.011.009-4.455-7.254-.014.011-3.651Z" transform="translate(-37.261 -21.601)" fill="#1e2257"/>
      <path id="패스_8" data-name="패스 8" d="M118.577,51.727a26.83,26.83,0,0,0,7.213.455c3.118-.259,7.031-2.09,7.106-6.988a5.588,5.588,0,0,0-3.673-5.776l-4.6-1.65a1.407,1.407,0,0,1-.917-1.055c-.026-.8.624-1.553,2.077-1.73a18.568,18.568,0,0,1,5.843.641l-.024-5.016a25.045,25.045,0,0,0-5.754-.868,7.143,7.143,0,0,0-7.671,6.908,5.714,5.714,0,0,0,3.651,5.878l4.237,1.545c1.049.453,1.086.9,1.112,1.257.046.649-.587,1.144-1.419,1.467-1.1.427-4.353.453-7.155-.4Z" transform="translate(-80.539 -20.997)" fill="#1e2257"/>
      <path id="패스_9" data-name="패스 9" d="M82.14,35.775c2.485-.425,5.2.252,5.194,2.011s-2.72,2.422-5.2,1.989Zm-.016,7.944c2.485-.423,5.2.257,5.194,2.014s-2.718,2.421-5.2,1.988ZM76.54,30.938,76.5,52.484l8.388.015c6.926.012,8.073-4.214,8.076-5.919.006-2.536-1.064-4.034-2.786-4.836a4.956,4.956,0,0,0,2.512-4.671c0-2.024-1.273-6.107-7.811-6.119Z" transform="translate(-58.248 -21.64)" fill="#1e2257"/>
      <g id="그룹_1" data-name="그룹 1" transform="translate(-1)">
        <path id="패스_1" data-name="패스 1" d="M160.059,29.912a19,19,0,1,1,18.966,19.037,19,19,0,0,1-18.966-19.037" transform="translate(-102.942 -10.949)" fill="#f57e24"/>
        <path id="패스_10" data-name="패스 10" d="M189.1,33.582a5.306,5.306,0,0,0,2.169-2.241,1.418,1.418,0,0,0-.685-1.989,4.06,4.06,0,0,0-3.246.059,6.176,6.176,0,0,0-2.985,2.109,9.044,9.044,0,0,0-1.611,2.82,5.824,5.824,0,0,0,1.438.326,6.554,6.554,0,0,0,1.838,0,7.029,7.029,0,0,0,3.082-1.087m-11.431-3.1a13.784,13.784,0,0,1,3.383-3.909,13.113,13.113,0,0,1,4.49-2.366,15.043,15.043,0,0,1,5.15-.632,7.856,7.856,0,0,1,4.88,1.934,5.48,5.48,0,0,1,1.925,4.24,8.043,8.043,0,0,1-.793,3.593,11.339,11.339,0,0,1-2.037,2.885,12.093,12.093,0,0,1-2.854,2.048,14.063,14.063,0,0,1-3.248,1.212,12.017,12.017,0,0,1-3.311.316,9.911,9.911,0,0,1-2.848-.458,4.047,4.047,0,0,0,1.566,2.316,5.387,5.387,0,0,0,3.865,1.032,10.855,10.855,0,0,0,3.673-.89,16.176,16.176,0,0,0,3.281-1.727,1.833,1.833,0,0,1,1.672.036,3.188,3.188,0,0,1,1.21,1.189,4.785,4.785,0,0,1,.487,1.637,1.845,1.845,0,0,1-.3,1.378,16.544,16.544,0,0,1-4.461,2.528,15.906,15.906,0,0,1-5.7,1.24,13.183,13.183,0,0,1-5.93-.943,9.248,9.248,0,0,1-3.632-2.8,9.45,9.45,0,0,1-1.8-4.045,17.546,17.546,0,0,1-.22-4.687,11.693,11.693,0,0,1,1.55-5.131" transform="translate(-111.494 -17.692)" fill="#fff"/>
      </g>
    </g>
    <text id="교사지원센터" transform="translate(167.37 22.842)" fill="#3c3c3c" font-size="26" font-family="NotoSansCJKkr-Medium, Noto Sans CJK KR" font-weight="500" letter-spacing="-0.025em"><tspan x="0" y="0">교사지원센터</tspan></text>
  </g>
</svg>
