<svg xmlns="http://www.w3.org/2000/svg" width="237.176" height="38" viewBox="0 0 237.176 38">
  <g id="h1_ebseLOGO" transform="translate(-67.37 6.158)">
    <g id="logo_ebse-teacher" transform="translate(67.37 -6.158)">
      <path id="패스_7" data-name="패스 7" d="M51.333,35.771l.007-4.879L37.3,30.865,37.261,52.4l14.039.028.007-4.892-8.438-.016.009-3.655,7.256.011.009-4.455-7.254-.014.011-3.651Z" transform="translate(-37.261 -21.601)" fill="#1e2257"/>
      <path id="패스_8" data-name="패스 8" d="M118.577,51.727a26.83,26.83,0,0,0,7.213.455c3.118-.259,7.031-2.09,7.106-6.988a5.588,5.588,0,0,0-3.673-5.776l-4.6-1.65a1.407,1.407,0,0,1-.917-1.055c-.026-.8.624-1.553,2.077-1.73a18.568,18.568,0,0,1,5.843.641l-.024-5.016a25.045,25.045,0,0,0-5.754-.868,7.143,7.143,0,0,0-7.671,6.908,5.714,5.714,0,0,0,3.651,5.878l4.237,1.545c1.049.453,1.086.9,1.112,1.257.046.649-.587,1.144-1.419,1.467-1.1.427-4.353.453-7.155-.4Z" transform="translate(-80.539 -20.997)" fill="#1e2257"/>
      <path id="패스_9" data-name="패스 9" d="M82.14,35.775c2.485-.425,5.2.252,5.194,2.011s-2.72,2.422-5.2,1.989Zm-.016,7.944c2.485-.423,5.2.257,5.194,2.014s-2.718,2.421-5.2,1.988ZM76.54,30.938,76.5,52.484l8.388.015c6.926.012,8.073-4.214,8.076-5.919.006-2.536-1.064-4.034-2.786-4.836a4.956,4.956,0,0,0,2.512-4.671c0-2.024-1.273-6.107-7.811-6.119Z" transform="translate(-58.248 -21.64)" fill="#1e2257"/>
      <g id="그룹_1" data-name="그룹 1" transform="translate(-1)">
        <path id="패스_1" data-name="패스 1" d="M160.059,29.912a19,19,0,1,1,18.966,19.037,19,19,0,0,1-18.966-19.037" transform="translate(-102.942 -10.949)" fill="#f57e24"/>
        <path id="패스_10" data-name="패스 10" d="M189.1,33.582a5.306,5.306,0,0,0,2.169-2.241,1.418,1.418,0,0,0-.685-1.989,4.06,4.06,0,0,0-3.246.059,6.176,6.176,0,0,0-2.985,2.109,9.044,9.044,0,0,0-1.611,2.82,5.824,5.824,0,0,0,1.438.326,6.554,6.554,0,0,0,1.838,0,7.029,7.029,0,0,0,3.082-1.087m-11.431-3.1a13.784,13.784,0,0,1,3.383-3.909,13.113,13.113,0,0,1,4.49-2.366,15.043,15.043,0,0,1,5.15-.632,7.856,7.856,0,0,1,4.88,1.934,5.48,5.48,0,0,1,1.925,4.24,8.043,8.043,0,0,1-.793,3.593,11.339,11.339,0,0,1-2.037,2.885,12.093,12.093,0,0,1-2.854,2.048,14.063,14.063,0,0,1-3.248,1.212,12.017,12.017,0,0,1-3.311.316,9.911,9.911,0,0,1-2.848-.458,4.047,4.047,0,0,0,1.566,2.316,5.387,5.387,0,0,0,3.865,1.032,10.855,10.855,0,0,0,3.673-.89,16.176,16.176,0,0,0,3.281-1.727,1.833,1.833,0,0,1,1.672.036,3.188,3.188,0,0,1,1.21,1.189,4.785,4.785,0,0,1,.487,1.637,1.845,1.845,0,0,1-.3,1.378,16.544,16.544,0,0,1-4.461,2.528,15.906,15.906,0,0,1-5.7,1.24,13.183,13.183,0,0,1-5.93-.943,9.248,9.248,0,0,1-3.632-2.8,9.45,9.45,0,0,1-1.8-4.045,17.546,17.546,0,0,1-.22-4.687,11.693,11.693,0,0,1,1.55-5.131" transform="translate(-111.494 -17.692)" fill="#fff"/>
      </g>
    </g>
    <path id="패스_246" data-name="패스 246" d="M17.654-16.822A49.587,49.587,0,0,1,16.822-6.5l2.678.312a53.282,53.282,0,0,0,.832-10.634v-2.47H3.432v2.184H17.654ZM14.664-3.276v-7.592H12.012v7.592H8.866v-7.592H6.214v7.592H1.326v2.21H22.542v-2.21Zm18.148-16.25H30.134v3.848c0,4.342-2.288,8.788-5.954,10.582l1.638,2.158A12.132,12.132,0,0,0,31.486-10.3,11.694,11.694,0,0,0,36.894-3.38l1.638-2.132c-3.536-1.742-5.72-5.98-5.72-10.166Zm13.624,7.358H42.77v-9.308H40.092V2H42.77V-9.958h3.666Zm10.088-4.758H61.75v-2.21H48.594v2.21H53.82v2.236c0,4.03-2.418,8.4-6.058,10.088L49.3-2.47a12.11,12.11,0,0,0,5.9-7.384,11.507,11.507,0,0,0,5.928,6.786l1.482-2.106a10.593,10.593,0,0,1-6.084-9.516Zm7.956-4.55V2h2.7V-21.476ZM83.3-7.7v1.872h4.6V-3.64h2.678V-21.5H87.906V-7.7Zm-4.68-10.92c1.924,0,3.25.832,3.25,2.158S80.548-14.3,78.624-14.3c-1.95,0-3.276-.832-3.276-2.158S76.674-18.616,78.624-18.616Zm0,6.292c3.432,0,5.8-1.638,5.8-4.134s-2.366-4.134-5.8-4.134c-3.458,0-5.824,1.638-5.824,4.134S75.166-12.324,78.624-12.324Zm-1.066,7.93h2.678V-8.918a52.2,52.2,0,0,0,6.032-.676l-.208-1.924a133.457,133.457,0,0,1-15.054.7l.338,2.184c1.846,0,3.978-.026,6.214-.13Zm-.7,3.77V-5.382H74.178V1.56H91.13V-.624ZM114.27-21.476h-2.548v17.6h2.548ZM107.12-4.55h2.522V-21.034H107.12v5.226h-3.3v2.21h3.3ZM105.9-9.724a7.442,7.442,0,0,1-4.342-6.864v-3.276h-2.6v3.276a8.367,8.367,0,0,1-4.68,7.462L95.758-7.1a9.085,9.085,0,0,0,4.524-5.1,8.112,8.112,0,0,0,4.16,4.5Zm-4.446,9.1v-5.33h-2.7V1.56H114.92V-.624Zm19.942-10.088h7.254v-2.132h-7.254v-4.394h8.216v-2.21H118.716v15.99h1.846a56.688,56.688,0,0,0,10.556-.7l-.234-2.158a55.754,55.754,0,0,1-9.49.676Zm13.078-10.816V-12.9h-4.5v2.21h4.5V2.028h2.7V-21.528Z" transform="translate(167.37 22.842)" fill="#3c3c3c"/>
  </g>
</svg>
