<svg xmlns="http://www.w3.org/2000/svg" width="54" height="22" viewBox="0 0 54 22">
  <g id="img_notice" transform="translate(-926 -409)">
    <path id="shape_notice" d="M31.829,19.215H-12v-22H31.966v.022a2.418,2.418,0,0,1,1.745.806L41.262,6.28a2.934,2.934,0,0,1,0,3.9L33.711,18.41a2.415,2.415,0,0,1-1.786.807Z" transform="translate(937.998 411.783)" fill="#495a6e"/>
    <path id="패스_247" data-name="패스 247" d="M1.092,14h1.68V10.436c0-1.02-.132-2.136-.216-3.1h.06l.9,1.908L6.084,14h1.8V5.12H6.2V8.66c0,1.008.132,2.184.228,3.108h-.06l-.888-1.92L2.9,5.12H1.092Zm11.652.168a3.275,3.275,0,0,0,3.228-3.516,3.242,3.242,0,1,0-6.456,0A3.275,3.275,0,0,0,12.744,14.168Zm0-1.44c-.912,0-1.428-.816-1.428-2.076s.516-2.1,1.428-2.1,1.428.828,1.428,2.1S13.656,12.728,12.744,12.728Zm6.828,1.44a4.343,4.343,0,0,0,1.416-.252L20.7,12.632a1.963,1.963,0,0,1-.66.144c-.6,0-.912-.36-.912-1.128V8.672h1.656V7.28H19.128V5.48H17.652l-.2,1.8-1.032.084V8.672h.948v2.976C17.364,13.16,17.976,14.168,19.572,14.168ZM22.152,14H23.9V7.28H22.152Zm.888-7.8a.977.977,0,0,0,1.044-.96,1.054,1.054,0,0,0-2.1,0A.981.981,0,0,0,23.04,6.2Zm5.616,7.968a3.334,3.334,0,0,0,2.2-.816l-.7-1.164a2.087,2.087,0,0,1-1.308.54c-.972,0-1.668-.816-1.668-2.076s.7-2.1,1.716-2.1A1.534,1.534,0,0,1,29.928,9l.84-1.14a2.938,2.938,0,0,0-1.956-.744,3.355,3.355,0,0,0-3.432,3.54A3.212,3.212,0,0,0,28.656,14.168Zm6.024,0a4.239,4.239,0,0,0,2.352-.744l-.6-1.08a2.77,2.77,0,0,1-1.512.468,1.766,1.766,0,0,1-1.86-1.68H37.2a3.278,3.278,0,0,0,.084-.8c0-1.86-.96-3.216-2.808-3.216a3.29,3.29,0,0,0-3.132,3.54A3.256,3.256,0,0,0,34.68,14.168Zm-1.644-4.2A1.515,1.515,0,0,1,34.5,8.48c.864,0,1.272.576,1.272,1.488Z" transform="translate(931 411)" fill="#fff"/>
  </g>
</svg>
